<?xml version="1.0" encoding="UTF-8"?>
<svg width="32px" height="32px" viewBox="0 0 32 32" version="1.1" xmlns="http://www.w3.org/2000/svg" xmlns:xlink="http://www.w3.org/1999/xlink">
    <title>WQE</title>
    <defs>
        <linearGradient x1="-8.93101484%" y1="108.941832%" x2="91.3959943%" y2="8.59706506%" id="linearGradient-1">
            <stop stop-color="#05C5BA" offset="0%"></stop>
            <stop stop-color="#16C2F6" offset="100%"></stop>
        </linearGradient>
        <linearGradient x1="128.701111%" y1="50.0044213%" x2="13.260043%" y2="50.0044213%" id="linearGradient-2">
            <stop stop-color="#16C2F6" offset="0%"></stop>
            <stop stop-color="#16C2F6" offset="100%"></stop>
        </linearGradient>
        <linearGradient x1="128.701111%" y1="49.9957831%" x2="13.260043%" y2="49.9957831%" id="linearGradient-3">
            <stop stop-color="#05C5BA" offset="0%"></stop>
            <stop stop-color="#16C2F6" offset="100%"></stop>
        </linearGradient>
        <linearGradient x1="50%" y1="87.2877859%" x2="50%" y2="12.8065315%" id="linearGradient-4">
            <stop stop-color="#05C5BA" offset="0%"></stop>
            <stop stop-color="#16C2F6" offset="100%"></stop>
        </linearGradient>
        <path d="M9.33247232,20.7554348 L10.4121771,14.4782609 L10.4402214,14.4782609 L11.5339483,20.7554348 L12.8800738,20.7554348 L14.3664207,11.0815217 L12.8520295,11.0815217 L12.1649446,17.3722826 L12.1369004,17.3722826 L10.9730627,11.0815217 L9.87933579,11.0815217 L8.75756458,17.2228261 L8.7295203,17.2228261 L8.01439114,11.0815217 L6.5,11.0815217 L7.98634686,20.7554348 L9.33247232,20.7554348 Z M19.9191882,21 L20.6483395,20.1576087 L19.7649446,19.4646739 C19.9051661,19.1838768 19.9752768,18.8532609 19.9752768,18.4728261 L19.9752768,18.4728261 L19.9752768,13.3641304 C19.9752768,12.9746377 19.9051661,12.6304348 19.7649446,12.3315217 C19.6247232,12.0326087 19.4424354,11.7835145 19.2180812,11.5842391 C18.9843788,11.3940217 18.7249692,11.2490942 18.4398524,11.1494565 C18.1547355,11.0498188 17.8672817,11 17.5774908,11 C17.2876999,11 17.000246,11.0498188 16.7151292,11.1494565 C16.4300123,11.2490942 16.1752768,11.3940217 15.9509225,11.5842391 C15.7172202,11.7835145 15.5302583,12.0326087 15.3900369,12.3315217 C15.2498155,12.6304348 15.1797048,12.9746377 15.1797048,13.3641304 L15.1797048,13.3641304 L15.1797048,18.4728261 C15.1797048,18.8804348 15.2498155,19.2291667 15.3900369,19.5190217 C15.5302583,19.8088768 15.7172202,20.048913 15.9509225,20.2391304 C16.1752768,20.4384058 16.4300123,20.5878623 16.7151292,20.6875 C17.000246,20.7871377 17.2876999,20.8369565 17.5774908,20.8369565 C18.1477245,20.8369565 18.6478475,20.6693841 19.0778598,20.3342391 L19.0778598,20.3342391 L19.9191882,21 Z M17.5774908,19.451087 C17.3157442,19.451087 17.0890529,19.3718297 16.897417,19.2133152 C16.7057811,19.0548007 16.6099631,18.807971 16.6099631,18.4728261 L16.6099631,18.4728261 L16.6099631,13.3641304 C16.6099631,13.0289855 16.7057811,12.7821558 16.897417,12.6236413 C17.0890529,12.4651268 17.3157442,12.3858696 17.5774908,12.3858696 C17.8392374,12.3858696 18.0659287,12.4651268 18.2575646,12.6236413 C18.4492005,12.7821558 18.5450185,13.0289855 18.5450185,13.3641304 L18.5450185,13.3641304 L18.5450185,18.5 L17.9701107,18.0516304 L17.2409594,18.8940217 L17.8859779,19.3967391 C17.8111931,19.432971 17.7083641,19.451087 17.5774908,19.451087 Z M25.5,20.7554348 L25.5,19.3695652 L22.6675277,19.3695652 L22.6675277,16.5298913 L25.1354244,16.5298913 L25.1354244,15.2255435 L22.6675277,15.2255435 L22.6675277,12.3858696 L25.5,12.3858696 L25.5,11.0815217 L21.2372694,11.0815217 L21.2372694,20.7554348 L25.5,20.7554348 Z" id="path-5"></path>
    </defs>
    <g id="页面-1" stroke="none" stroke-width="1" fill="none" fill-rule="evenodd">
        <g id="平台logo" transform="translate(-61.000000, -393.000000)" fill-rule="nonzero">
            <g id="WQE" transform="translate(61.000000, 393.000000)">
                <rect id="矩形" fill="url(#linearGradient-1)" x="10.6465882" y="0" width="21.2884706" height="21.2931765"></rect>
                <polygon id="路径" fill="url(#linearGradient-2)" points="0 31.9369412 21.2884706 31.9369412 31.9331765 21.2931765 10.6465882 21.2931765"></polygon>
                <polygon id="路径" fill="url(#linearGradient-3)" style="mix-blend-mode: overlay;" points="0 21.5369412 20.7736471 21.5397647 31.9331765 10.3802353 10.6465882 10.3802353 0.00564705882 21.0192941"></polygon>
                <polygon id="路径" fill="url(#linearGradient-4)" points="10.6447059 0.00470588235 0 10.6484706 0 31.9369412 10.6465882 21.2931765"></polygon>
                <rect id="矩形" fill="#31D8FF" x="10.6456471" y="0.00470588235" width="21.2865882" height="15.4531765"></rect>
                <rect id="矩形" fill="#31D8FF" opacity="0.6" style="mix-blend-mode: overlay;" x="7.36564706" y="3.29882353" width="22.5242353" height="20.0084706"></rect>
                <rect id="矩形" fill="#E6E6E6" opacity="0.6" style="mix-blend-mode: soft-light;" x="2.16470588" y="8.48" width="21.2828235" height="21.2912941"></rect>
                <rect id="矩形" fill="#FFFFFF" style="mix-blend-mode: soft-light;" x="0.00564705882" y="26.6108235" width="5.31670588" height="5.31858824"></rect>
                <polygon id="矩形" fill="#4D4D4D" style="mix-blend-mode: multiply;" points="5.32235294 5.31995936 26.6108235 5.31995936 26.6108235 26.6131358 5.32235294 26.6131358"></polygon>
                <g>
                    <use fill="#000000" xlink:href="#path-5"></use>
                    <use fill="#FFFFFF" xlink:href="#path-5"></use>
                </g>
            </g>
        </g>
    </g>
</svg>